<svg xmlns="http://www.w3.org/2000/svg" viewBox="0 0 32 32">
  <rect width="32" height="32" rx="8" fill="#1DB954"/>
  <g fill="black" transform="translate(6, 6)">
    <path d="M10 2a8 8 0 1 0 0 16 8 8 0 0 0 0-16zm3.67 11.54a.5.5 0 0 1-.69.16c-1.89-1.16-4.27-1.42-7.08-.78a.5.5 0 0 1-.22-.98c3.07-.7 5.7-.4 7.83.91a.5.5 0 0 1 .16.69zm.98-2.17a.62.62 0 0 1-.86.21c-2.16-1.33-5.46-1.72-8.02-.94a.62.62 0 1 1-.36-1.19c2.92-.89 6.55-.46 9.03 1.07a.62.62 0 0 1 .21.85zm.09-2.26c-2.6-1.54-6.88-1.68-9.36-.93a.75.75 0 1 1-.43-1.44c2.84-.86 7.57-.7 10.56 1.07a.75.75 0 1 1-.77 1.3z"/>
  </g>
</svg>

